<?xml version="1.0" encoding="UTF-8"?> <svg xmlns="http://www.w3.org/2000/svg" xmlns:xlink="http://www.w3.org/1999/xlink" id="Group_701" data-name="Group 701" width="238.737" height="238.737" viewBox="0 0 238.737 238.737"><defs><clipPath id="clip-path"><rect id="Rectangle_686" data-name="Rectangle 686" width="238.737" height="238.737" fill="none"></rect></clipPath></defs><g id="Group_700" data-name="Group 700" clip-path="url(#clip-path)"><path id="Path_1333" data-name="Path 1333" d="M179.806,0H0V238.737H238.737V0ZM152.133,200.941l.008-2.064h6.9v2.064h-2.151v19.054H154.44V200.941Zm6.119-81H146.916v51.381l-13.878,2.991V119.945H121.28v-11.96h36.973Zm-17.006,88.219v2.064H137.66v7.7h3.831v2.063h-6.3l0-21.118h6.249v2.064H137.66v7.223Zm-8.209-16.891v-10.66l13.878-2.979v13.639Zm17.57,7.6v2.064H146.82v7.223h3.586v2.064H146.82v7.7h3.836v2.063h-6.3l0-21.118Zm-5.365-181.42H158.22V100.4H145.243Zm-66.766.486h18.59l11.041,51.523,10.58-51.53h18.392v82.339H124.93V69.587l.509-28.163L113.392,99.893H102.567L90.012,41.424l.509,28.163v30.687H78.476ZM90.3,219.995H88.111V211.53l.2-7.9-2.842,16.323H83.253L80.3,203.627l.2,7.9v8.466H78.324V198.877H81.4l3,17.362,2.831-17.362H90.3Zm6.07,0H93.908V198.877h2.461Zm16.476-1.195a3.994,3.994,0,0,1-6.789-1.075,12.858,12.858,0,0,1-.438-3.708v-2.182h2.387v2.149a10.6,10.6,0,0,0,.333,3.221,1.23,1.23,0,0,0,1.235.907,1.529,1.529,0,0,0,1.253-.427,2.278,2.278,0,0,0,.4-1.3q.053-.877.052-1.967a5.814,5.814,0,0,0-1.912-4.129L108,208.908a8.67,8.67,0,0,1-2.268-3.492h-.008a6.705,6.705,0,0,1-.213-1.812,6.864,6.864,0,0,1,.837-3.642,3.467,3.467,0,0,1,3.2-1.349,3.277,3.277,0,0,1,3.586,2.934l0,.017a17.859,17.859,0,0,1,.237,3.205v1.253h-2.351v-1.411a11.674,11.674,0,0,0-.2-2.712,1.788,1.788,0,0,0-.5-.925,1.225,1.225,0,0,0-.772-.228,1.375,1.375,0,0,0-1.283.66,5.149,5.149,0,0,0-.035,3.851,6.266,6.266,0,0,0,.879,1.146q.523.546.581.62l1.425,1.523a8.627,8.627,0,0,1,2.567,6.07,8.469,8.469,0,0,1-.839,4.183m-12.758-26.584q-10.786,0-15.022-6.213T80.832,167.88l0,.011v-7.419h13.2v8.364a25.63,25.63,0,0,0,1.3,9.758,4.881,4.881,0,0,0,4.886,2.812q3.587,0,4.756-2.316a17.894,17.894,0,0,0,1.169-7.561,19.152,19.152,0,0,0-2.078-9.143,32.843,32.843,0,0,0-6.6-8.152L90.708,147.9A38.093,38.093,0,0,1,83.35,138.6a22.956,22.956,0,0,1-2.623-11.153q0-10.3,4.365-15.309t15.022-5.017q10.659,0,14.422,5.836t3.76,17.035v5.151H105.46v-5.958a23.564,23.564,0,0,0-1.144-8.671,4.342,4.342,0,0,0-4.39-2.623,5.373,5.373,0,0,0-4.678,1.984,10.185,10.185,0,0,0-1.429,5.958,11.986,11.986,0,0,0,1.454,6.331,34.878,34.878,0,0,0,5.251,6.05l7.539,7.424a43.79,43.79,0,0,1,8.551,11.286A27.3,27.3,0,0,1,119.5,169.4q0,11.672-4.314,17.242t-15.1,5.577m21.746,8.725h-2.145v19.054h-2.448V200.941h-2.3v-2.064h6.9Zm5.973,8.941-1.46-.083V220h-2.461l0-21.121h4.39a3.812,3.812,0,0,1,2.684.783,4.077,4.077,0,0,1,.987,2.652q.069.768.071,2.394a7.678,7.678,0,0,1-.424,2.729,2.229,2.229,0,0,1-1.489,1.428,1.622,1.622,0,0,1,1.187.834,6,6,0,0,1,.57,2.233q.167,1.529.167,4.545A16.929,16.929,0,0,0,132.21,220h-2.445a56.793,56.793,0,0,1-.191-7.115q0-2.269-.439-2.633a2.031,2.031,0,0,0-1.329-.365" transform="translate(0 -0.001)" fill="#59c4b1"></path><path id="Path_1334" data-name="Path 1334" d="M85.168,133.615l0-.143q0-2.433-.432-2.821a1.84,1.84,0,0,0-1.253-.384H81.943v7.128h1.566a1.618,1.618,0,0,0,1.047-.276,1.761,1.761,0,0,0,.47-1.056,15.1,15.1,0,0,0,.142-2.447" transform="translate(44.397 70.577)" fill="#59c4b1"></path></g></svg> 